<svg width="512" height="512" viewBox="0 0 2000 2000" fill="none" xmlns="http://www.w3.org/2000/svg">
  <rect width="2000" height="2000" rx="450" fill="#4A3FE0"/>
  <g transform="translate(-80, -50) scale(1.05)">
    <path d="M0 0 C61.05 0 122.1 0 185 0 C183.83246251 50.20411186 183.83246251 50.20411186 183.21461678 72.31775475 C183.13422916 75.19889273 183.05410865 78.08003788 182.97427177 80.96119118 C182.75901033 88.72879468 182.54273025 96.49636902 182.32543945 104.26391602 C182.15037243 110.52298805 181.97691976 116.78210239 181.80493164 123.04125977 C180.89465702 156.15564854 179.9299438 189.26504559 178.71278381 222.36987305 C177.91930742 243.95534477 177.23788946 265.54345366 176.5915947 287.13378525 C176.49747899 290.27154901 176.40264808 293.4092905 176.30764771 296.54702759 C175.39640037 326.66984217 174.56806298 356.79392476 173.81988525 386.92120361 C173.24493639 410.04007022 172.53071759 433.14856226 171.60913086 456.2565918 C171.23363011 465.82604341 170.91707238 475.38729661 170.8828125 484.96484375 C170.87772675 485.749767 170.87264099 486.53469025 170.86740112 487.34339905 C170.87717161 492.62912647 171.34333024 497.75477709 172 503 C172.40089844 502.02281006 172.80179688 501.04562012 173.21484375 500.03881836 C173.48419235 499.38228271 173.75354095 498.72574707 174.03105164 498.04931641 C174.64760271 496.54646992 175.26414917 495.04362154 175.88069153 493.54077148 C177.65171867 489.22383334 179.42283444 484.90693158 181.1940918 480.59008789 C184.78344308 471.84200639 188.37189916 463.09356152 191.95703125 454.34375 C199.46872635 436.01396653 207.01277513 417.69788482 214.58267212 399.39205933 C220.79513255 384.36632212 226.96662009 369.32426725 233.11419678 354.2718811 C239.27056369 339.20021527 245.47458354 324.14868308 251.69775391 309.10449219 C257.49720166 295.08265318 263.26290621 281.04746136 269 267 C275.52693401 251.01858908 282.09909281 235.05641241 288.69775391 219.10449219 C294.49720174 205.08265298 300.26287334 191.0474481 306 177 C313.51440367 158.60119092 321.08209507 140.22472893 328.68313599 121.86154175 C329.41393575 120.09302924 330.14256959 118.32361991 330.86886597 116.55325317 C332.58797109 112.36920016 334.33954438 108.20655791 336.17431641 104.07177734 C336.51231766 103.29553513 336.85031891 102.51929291 337.19856262 101.7195282 C337.82998595 100.2727748 338.47485986 98.83178452 339.13578796 97.39826965 C340.44592836 94.36477881 341.1257076 92.52527317 340.3449707 89.26293945 C339.09271163 87.15598912 337.83286886 85.22752986 336.3046875 83.3125 C335.76199219 82.62486572 335.21929688 81.93723145 334.66015625 81.22875977 C333.77650391 80.12552368 333.77650391 80.12552368 332.875 79 C331.60059481 77.38487766 330.32719705 75.76896003 329.0546875 74.15234375 C328.05646973 72.88753174 328.05646973 72.88753174 327.03808594 71.59716797 C323.65230359 67.28260728 320.32309849 62.92543018 317 58.5625 C316.3282373 57.68078125 315.65647461 56.7990625 314.96435547 55.890625 C310.01203206 49.37183553 305.14264896 42.79545263 300.30883789 36.18847656 C295.1180436 29.11139992 289.79095959 22.14121691 284.41601562 15.203125 C283.78244141 14.37941406 283.14886719 13.55570313 282.49609375 12.70703125 C281.94107178 11.9900708 281.3860498 11.27311035 280.81420898 10.53442383 C278.37995974 7.13381269 276.21649368 3.54638989 274 0 C370.03 0 466.06 0 565 0 C564.24576561 3.77117196 563.53130224 6.42002872 562.04833984 9.85131836 C561.43767921 11.27429985 561.43767921 11.27429985 560.81468201 12.72602844 C560.36794632 13.75358749 559.92121063 14.78114655 559.4609375 15.83984375 C558.99248917 16.92819016 558.52404083 18.01653656 558.04139709 19.13786316 C556.75871572 22.11610213 555.47188915 25.09250989 554.18348312 28.06827545 C552.81910184 31.2227445 551.46050774 34.37970224 550.10180664 37.53662109 C549.54555376 38.82892116 548.98929457 40.12121851 548.43302917 41.41351318 C548.15555532 42.05815269 547.87808147 42.70279221 547.59219933 43.36696625 C546.74031328 45.34545629 545.88779625 47.32367335 545.03511047 49.30181885 C539.46469311 62.22676407 533.9465718 75.1737985 528.4375 88.125 C527.49078472 90.34931027 526.54400719 92.57359405 525.59716797 94.79785156 C523.69580626 99.26467508 521.79477124 103.73163738 519.89404297 108.19873047 C514.93113823 119.86240985 509.96611452 131.52518693 505 143.1875 C504.51264374 144.33204651 504.02528748 145.47659302 503.52316284 146.65582275 C497.57779576 160.6171458 491.61929581 174.57266155 485.63427734 188.51702881 C476.71253304 209.30676496 467.86470256 230.12808526 459.00390625 250.94384766 C456.07636178 257.82099627 453.14775582 264.69769242 450.21875 271.57421875 C449.74612228 272.68382462 449.27349457 273.79343048 448.7865448 274.93666077 C446.88097933 279.41035579 444.97536602 283.88403043 443.06973267 288.35769653 C438.23166594 299.71560908 433.39394571 311.07366795 428.55917358 322.4329834 C419.03713777 344.80494382 409.5072544 367.17329489 399.91986084 389.51733398 C390.55501854 411.34526494 381.25745168 433.20182592 371.95556641 455.05664062 C367.13928083 466.37204619 362.31941901 477.68592876 357.5 489 C355.59371221 493.47524432 353.68745875 497.95050326 351.78125 502.42578125 C351.07212715 504.09061302 351.07212715 504.09061302 350.34867859 505.78907776 C347.39240895 512.72993791 344.43700531 519.67116621 341.48217773 526.61264038 C323.07495984 569.85468128 323.07495984 569.85468128 314.64837646 589.48379517 C307.46482667 606.219371 300.336378 622.97843673 293.20507812 639.73632812 C292.49319839 641.4088414 292.49319839 641.4088414 291.76693726 643.11514282 C290.8922033 645.17035779 290.01768373 647.22566403 289.14346313 649.28109741 C284.78172419 659.52914216 280.38738912 669.76275872 276 680 C182.61 680 89.22 680 -7 680 C-7 547.31850523 -7 547.31850523 -6.16327357 492.9441638 C-5.95062906 479.11522222 -5.76558871 465.28585782 -5.57627296 451.45658112 C-5.53094015 448.14559692 -5.48524108 444.83461812 -5.43921471 441.52364349 C-5.12302495 418.74665135 -4.86374603 395.96985482 -4.6796875 373.19140625 C-4.67411827 372.50438668 -4.66854904 371.81736712 -4.66281104 371.10952878 C-4.55388417 357.62339808 -4.45523702 344.13720038 -4.36528778 330.65092945 C-4.32723367 324.98341979 -4.28732072 319.31592494 -4.24609375 313.6484375 C-4.23814159 312.54872305 -4.23018944 311.4490086 -4.22199631 310.31596947 C-4.09306168 293.10135905 -3.82231118 275.89165677 -3.5 258.6796875 C-3.11649111 238.15661419 -2.87483582 217.63550695 -2.75390625 197.109375 C-2.74989099 196.43630113 -2.74587573 195.76322727 -2.7417388 195.06975722 C-2.70481246 188.87416353 -2.66914452 182.67856304 -2.63471222 176.48295498 C-2.30742987 117.63375519 -1.43041363 58.83768065 0 0 Z " fill="white" transform="translate(546,597)"/>
    <path d="M0 0 C0.70168063 0.00262701 1.40336127 0.00525403 2.12630495 0.00796065 C2.86865485 0.0068068 3.61100474 0.00565296 4.37585008 0.00446415 C6.89512975 0.00179045 9.41434713 0.00632579 11.93362364 0.01075396 C13.74527421 0.01031841 15.55692472 0.00944381 17.36857489 0.00816479 C22.3716144 0.00591661 27.37463273 0.00994551 32.37766954 0.01494285 C37.76352369 0.01924256 43.14937654 0.01780127 48.53523192 0.01704058 C57.87481472 0.01651504 67.21439057 0.01966497 76.55397162 0.02527842 C90.05760647 0.03338936 103.56123794 0.03600822 117.06487497 0.03726641 C138.9711539 0.03945757 160.87742912 0.04611939 182.78370604 0.05556902 C204.06951314 0.06474149 225.35531924 0.07182313 246.64112791 0.07607684 C247.95215625 0.07633956 249.26318458 0.07660228 250.61394105 0.07687297 C257.19067769 0.07817796 263.76741434 0.07944168 270.34415099 0.08068487 C324.94518037 0.09105948 379.54620572 0.10867953 434.14723143 0.13100848 C433.99369681 1.89707906 433.83817432 3.6629769 433.68180785 5.428799 C433.59541359 6.41220137 433.50901934 7.39560374 433.42000708 8.40880617 C433.12638783 11.33902005 432.64330906 14.15205553 431.98316893 17.02163348 C431.6364514 18.55400652 431.6364514 18.55400652 431.28272948 20.1173366 C431.03176512 21.19434832 430.78080077 22.27136004 430.52223143 23.38100848 C430.25644286 24.55083269 429.99065428 25.72065691 429.71681151 26.92593035 C428.86697912 30.66252244 428.00786675 34.39689116 427.14723143 38.13100848 C426.03804049 42.96320573 424.93396509 47.79653634 423.83473143 52.63100848 C423.54702879 53.89557879 423.25932616 55.1601491 422.96290526 56.46303973 C420.20251748 68.66660151 417.67052768 80.9162822 415.1324304 93.16762957 C412.46018712 106.05058679 409.64675587 118.88959945 406.66480955 131.70415911 C403.22449948 146.51242194 400.11047852 161.38526332 397.0280908 176.27163348 C396.84298445 177.16524081 396.6578781 178.05884814 396.46716246 178.97953448 C396.11995579 180.65790976 395.77367947 182.33647787 395.42849669 184.01527056 C394.72832797 187.40729784 393.98745999 190.77009425 393.14723143 194.13100848 C336.71723143 194.13100848 280.28723143 194.13100848 222.14723143 194.13100848 C222.79425095 188.30783275 223.51008311 182.72654905 224.67066893 177.01772723 C224.89093245 175.91422678 224.89093245 175.91422678 225.11564574 174.7884334 C225.4247706 173.24445542 225.7357746 171.70085255 226.04859862 170.1576198 C226.51883518 167.83528142 226.98192183 165.51160177 227.44410643 163.1876491 C228.94923062 155.67596633 230.53520275 148.22093648 232.52076659 140.81777605 C233.26424022 137.62918395 233.6842007 134.37222356 234.14723143 131.13100848 C220.28723143 131.46100848 206.42723143 131.79100848 192.14723143 132.13100848 C191.28098143 136.37975848 190.41473143 140.62850848 189.52223143 145.00600848 C187.52099884 154.74621961 185.42260251 164.45069506 183.14723143 174.13100848 C180.74658327 184.35815997 178.56587137 194.61810702 176.4631494 204.91030535 C174.36144591 215.17084619 172.14337704 225.40385509 169.89137205 235.63222918 C169.59250918 236.98988754 169.29368137 238.34755363 168.99488768 239.70522723 C168.84492339 240.38650179 168.69495909 241.06777636 168.54045042 241.76969561 C167.41446801 246.89357045 166.3065552 252.02118563 165.20582518 257.15053973 C161.79505306 273.03547051 158.30802081 288.89618929 154.64851317 304.72576556 C151.80374667 317.05140472 149.15952913 329.41296412 146.58186278 341.79696307 C144.32821207 352.62003748 141.98684921 363.41652506 139.52223143 374.19350848 C137.01565939 385.15879546 134.66421312 396.1462777 132.41187987 407.16640887 C130.32785852 417.33596625 128.12622401 427.47778287 125.89552245 437.61587176 C125.59789819 438.96856988 125.30029093 440.32127174 125.00270018 441.67397723 C124.85315382 442.353575 124.70360747 443.03317278 124.5495294 443.73336443 C122.87814886 451.33859278 121.23877523 458.95069581 119.59806761 466.56258807 C115.66916021 484.78537493 111.69952688 502.99876765 107.53785643 521.17007098 C104.06231911 536.37655474 100.76012034 551.60904983 97.58473143 566.88100848 C93.72344621 585.45046507 89.69944087 603.97310893 85.47145018 622.46303973 C81.09942941 641.64758321 77.11763316 660.84620006 73.14723143 680.13100848 C16.38723143 680.13100848 -40.37276857 680.13100848 -98.85276857 680.13100848 C-98.24440502 675.26410005 -97.63637713 670.68227104 -96.65354982 665.92007098 C-96.41716798 664.77224139 -96.18078615 663.6244118 -95.93724123 662.44179949 C-95.68249025 661.22548846 -95.42773927 660.00917742 -95.16526857 658.75600848 C-94.89762697 657.46944353 -94.62998537 656.18287859 -94.35423341 654.85732684 C-92.4454876 645.73324363 -90.37908013 636.65059916 -88.24461427 627.57680926 C-85.96257025 617.79242621 -83.90171917 607.96616461 -81.85276857 598.13100848 C-79.33807103 586.0644983 -76.73347733 574.02990486 -73.92430177 562.02773699 C-72.19619368 554.64357623 -70.54793871 547.24620178 -68.9509131 539.83266863 C-67.5908998 533.52216471 -66.21314711 527.21585078 -64.82151857 520.91225848 C-61.06281975 503.87650154 -57.34938199 486.83467635 -53.79026857 469.75600848 C-51.12393425 456.96218466 -48.30582668 444.21264805 -45.35450807 431.48168597 C-42.47809701 419.06028274 -39.81550426 406.60123832 -37.21800295 394.11880144 C-34.98943623 383.41694873 -32.6497293 372.75359995 -30.14134279 362.11318621 C-27.8912546 352.48411007 -25.87015963 342.81084254 -23.85276857 333.13100848 C-21.40242652 321.38068741 -18.87902067 309.65793793 -16.14183107 297.97036394 C-13.9832982 288.7458273 -11.9064961 279.5043413 -9.85276857 270.25600848 C-9.5946187 269.09357119 -9.5946187 269.09357119 -9.33125368 267.90765032 C-6.90868445 256.98766809 -4.53498487 246.05807537 -2.20774904 235.1173366 C-0.20004728 225.69730147 1.86797231 216.29117961 3.94236693 206.88564715 C8.15083519 187.80058358 12.22711432 168.69030419 16.21510252 149.55801043 C17.50914752 143.41214401 18.8312582 137.27221691 20.14723143 131.13100848 C-6.25276857 131.13100848 -32.65276857 131.13100848 -59.85276857 131.13100848 C-59.12518745 126.76552174 -58.57855669 124.03382069 -56.91355959 120.15932879 C-56.51058656 119.21266344 -56.10761354 118.2659981 -55.69242921 117.29064593 C-55.25163026 116.27374682 -54.81083131 115.25684771 -54.35667482 114.20913348 C-53.89629823 113.13269579 -53.43592165 112.05625811 -52.96159425 110.9472011 C-51.45235584 107.42244001 -49.93386619 103.90174614 -48.41526857 100.38100848 C-47.36607794 97.93546509 -46.31741529 95.48970262 -45.26951662 93.04360613 C-43.14816151 88.0941746 -41.02266988 83.1465413 -38.8937842 78.20034441 C-36.16974343 71.8704269 -33.45422729 65.5369041 -30.74339357 59.20132098 C-27.78115286 52.27906637 -24.81530184 45.35838281 -21.84495607 38.43960223 C-19.25840276 32.41452735 -16.68033226 26.38592411 -14.11058107 20.35366473 C-13.26683699 18.37543599 -12.42291777 16.39728208 -11.57893434 14.41915545 C-10.81410683 12.62444624 -10.05178097 10.82867158 -9.28953615 9.03286394 C-8.84505129 7.99146258 -8.40056642 6.95006121 -7.94261232 5.87710223 C-7.55968019 4.9766115 -7.17674806 4.07612078 -6.78221193 3.14834246 C-5.13399884 -0.42906356 -3.7982491 0.0135163 0 0 Z " fill="white" transform="translate(1144.8527685701847,596.8689915239811)"/>
  </g>
</svg>
