<svg width="135" height="108" viewBox="0 0 135 108" fill="none" xmlns="http://www.w3.org/2000/svg">
<path d="M51.912 28.456L33.984 79H18.576L0.648 28.456H13.752L26.28 66.616L38.88 28.456H51.912ZM94.8578 28.456V38.32H81.4657V79H69.1537V38.32H55.7617V28.456H94.8578Z" fill="#4F46E5"/>
<path d="M6.816 91.256C7.22133 91.32 7.58933 91.4853 7.92 91.752C8.26133 92.0187 8.528 92.3493 8.72 92.744C8.92267 93.1387 9.024 93.56 9.024 94.008C9.024 94.5733 8.88 95.0853 8.592 95.544C8.304 95.992 7.88267 96.3493 7.328 96.616C6.784 96.872 6.13867 97 5.392 97H1.232V85.848H5.232C5.98933 85.848 6.63467 85.976 7.168 86.232C7.70133 86.4773 8.10133 86.8133 8.368 87.24C8.63467 87.6667 8.768 88.1467 8.768 88.68C8.768 89.3413 8.58667 89.8907 8.224 90.328C7.872 90.7547 7.40267 91.064 6.816 91.256ZM2.688 90.664H5.136C5.81867 90.664 6.34667 90.504 6.72 90.184C7.09333 89.864 7.28 89.4213 7.28 88.856C7.28 88.2907 7.09333 87.848 6.72 87.528C6.34667 87.208 5.808 87.048 5.104 87.048H2.688V90.664ZM5.264 95.8C5.98933 95.8 6.55467 95.6293 6.96 95.288C7.36533 94.9467 7.568 94.472 7.568 93.864C7.568 93.2453 7.35467 92.76 6.928 92.408C6.50133 92.0453 5.93067 91.864 5.216 91.864H2.688V95.8H5.264ZM18.6605 88.232V97H17.2045V95.704C16.9272 96.152 16.5378 96.504 16.0365 96.76C15.5458 97.0053 15.0018 97.128 14.4045 97.128C13.7218 97.128 13.1085 96.9893 12.5645 96.712C12.0205 96.424 11.5885 95.9973 11.2685 95.432C10.9592 94.8667 10.8045 94.1787 10.8045 93.368V88.232H12.2445V93.176C12.2445 94.04 12.4632 94.7067 12.9005 95.176C13.3378 95.6347 13.9352 95.864 14.6925 95.864C15.4712 95.864 16.0845 95.624 16.5325 95.144C16.9805 94.664 17.2045 93.9653 17.2045 93.048V88.232H18.6605ZM24.0629 97.144C23.3909 97.144 22.7882 97.032 22.2549 96.808C21.7215 96.5733 21.3002 96.2533 20.9909 95.848C20.6815 95.432 20.5109 94.9573 20.4789 94.424H21.9829C22.0255 94.8613 22.2282 95.2187 22.5909 95.496C22.9642 95.7733 23.4495 95.912 24.0469 95.912C24.6015 95.912 25.0389 95.7893 25.3589 95.544C25.6789 95.2987 25.8389 94.9893 25.8389 94.616C25.8389 94.232 25.6682 93.9493 25.3269 93.768C24.9855 93.576 24.4575 93.3893 23.7429 93.208C23.0922 93.0373 22.5589 92.8667 22.1429 92.696C21.7375 92.5147 21.3855 92.2533 21.0869 91.912C20.7989 91.56 20.6549 91.1013 20.6549 90.536C20.6549 90.088 20.7882 89.6773 21.0549 89.304C21.3215 88.9307 21.7002 88.6373 22.1909 88.424C22.6815 88.2 23.2415 88.088 23.8709 88.088C24.8415 88.088 25.6255 88.3333 26.2229 88.824C26.8202 89.3147 27.1402 89.9867 27.1829 90.84H25.7269C25.6949 90.3813 25.5082 90.0133 25.1669 89.736C24.8362 89.4587 24.3882 89.32 23.8229 89.32C23.3002 89.32 22.8842 89.432 22.5749 89.656C22.2655 89.88 22.1109 90.1733 22.1109 90.536C22.1109 90.824 22.2015 91.064 22.3829 91.256C22.5749 91.4373 22.8095 91.5867 23.0869 91.704C23.3749 91.8107 23.7695 91.9333 24.2709 92.072C24.9002 92.2427 25.4122 92.4133 25.8069 92.584C26.2015 92.744 26.5375 92.9893 26.8149 93.32C27.1029 93.6507 27.2522 94.0827 27.2629 94.616C27.2629 95.096 27.1295 95.528 26.8629 95.912C26.5962 96.296 26.2175 96.6 25.7269 96.824C25.2469 97.0373 24.6922 97.144 24.0629 97.144ZM29.9103 86.808C29.6329 86.808 29.3983 86.712 29.2063 86.52C29.0143 86.328 28.9183 86.0933 28.9183 85.816C28.9183 85.5387 29.0143 85.304 29.2063 85.112C29.3983 84.92 29.6329 84.824 29.9103 84.824C30.1769 84.824 30.4009 84.92 30.5823 85.112C30.7743 85.304 30.8703 85.5387 30.8703 85.816C30.8703 86.0933 30.7743 86.328 30.5823 86.52C30.4009 86.712 30.1769 86.808 29.9103 86.808ZM30.6143 88.232V97H29.1583V88.232H30.6143ZM37.2078 88.072C38.2744 88.072 39.1384 88.3973 39.7998 89.048C40.4611 89.688 40.7918 90.616 40.7918 91.832V97H39.3518V92.04C39.3518 91.1653 39.1331 90.4987 38.6958 90.04C38.2584 89.5707 37.6611 89.336 36.9038 89.336C36.1358 89.336 35.5224 89.576 35.0638 90.056C34.6158 90.536 34.3918 91.2347 34.3918 92.152V97H32.9358V88.232H34.3918V89.48C34.6798 89.032 35.0691 88.6853 35.5598 88.44C36.0611 88.1947 36.6104 88.072 37.2078 88.072ZM51.0101 92.28C51.0101 92.5573 50.9941 92.8507 50.9621 93.16H43.9541C44.0075 94.024 44.3008 94.7013 44.8341 95.192C45.3781 95.672 46.0341 95.912 46.8021 95.912C47.4315 95.912 47.9541 95.768 48.3701 95.48C48.7968 95.1813 49.0955 94.7867 49.2661 94.296H50.8341C50.5995 95.1387 50.1301 95.8267 49.4261 96.36C48.7221 96.8827 47.8475 97.144 46.8021 97.144C45.9701 97.144 45.2235 96.9573 44.5621 96.584C43.9115 96.2107 43.3995 95.6827 43.0261 95C42.6528 94.3067 42.4661 93.5067 42.4661 92.6C42.4661 91.6933 42.6475 90.8987 43.0101 90.216C43.3728 89.5333 43.8795 89.0107 44.5301 88.648C45.1915 88.2747 45.9488 88.088 46.8021 88.088C47.6341 88.088 48.3701 88.2693 49.0101 88.632C49.6501 88.9947 50.1408 89.496 50.4821 90.136C50.8341 90.7653 51.0101 91.48 51.0101 92.28ZM49.5061 91.976C49.5061 91.4213 49.3835 90.9467 49.1381 90.552C48.8928 90.1467 48.5568 89.8427 48.1301 89.64C47.7141 89.4267 47.2501 89.32 46.7381 89.32C46.0021 89.32 45.3728 89.5547 44.8501 90.024C44.3381 90.4933 44.0448 91.144 43.9701 91.976H49.5061ZM55.876 97.144C55.204 97.144 54.6013 97.032 54.068 96.808C53.5347 96.5733 53.1133 96.2533 52.804 95.848C52.4947 95.432 52.324 94.9573 52.292 94.424H53.796C53.8387 94.8613 54.0413 95.2187 54.404 95.496C54.7773 95.7733 55.2627 95.912 55.86 95.912C56.4147 95.912 56.852 95.7893 57.172 95.544C57.492 95.2987 57.652 94.9893 57.652 94.616C57.652 94.232 57.4813 93.9493 57.14 93.768C56.7987 93.576 56.2707 93.3893 55.556 93.208C54.9053 93.0373 54.372 92.8667 53.956 92.696C53.5507 92.5147 53.1987 92.2533 52.9 91.912C52.612 91.56 52.468 91.1013 52.468 90.536C52.468 90.088 52.6013 89.6773 52.868 89.304C53.1347 88.9307 53.5133 88.6373 54.004 88.424C54.4947 88.2 55.0547 88.088 55.684 88.088C56.6547 88.088 57.4387 88.3333 58.036 88.824C58.6333 89.3147 58.9533 89.9867 58.996 90.84H57.54C57.508 90.3813 57.3213 90.0133 56.98 89.736C56.6493 89.4587 56.2013 89.32 55.636 89.32C55.1133 89.32 54.6973 89.432 54.388 89.656C54.0787 89.88 53.924 90.1733 53.924 90.536C53.924 90.824 54.0147 91.064 54.196 91.256C54.388 91.4373 54.6227 91.5867 54.9 91.704C55.188 91.8107 55.5827 91.9333 56.084 92.072C56.7133 92.2427 57.2253 92.4133 57.62 92.584C58.0147 92.744 58.3507 92.9893 58.628 93.32C58.916 93.6507 59.0653 94.0827 59.076 94.616C59.076 95.096 58.9427 95.528 58.676 95.912C58.4093 96.296 58.0307 96.6 57.54 96.824C57.06 97.0373 56.5053 97.144 55.876 97.144ZM64.0754 97.144C63.4034 97.144 62.8007 97.032 62.2674 96.808C61.734 96.5733 61.3127 96.2533 61.0034 95.848C60.694 95.432 60.5234 94.9573 60.4914 94.424H61.9954C62.038 94.8613 62.2407 95.2187 62.6034 95.496C62.9767 95.7733 63.462 95.912 64.0594 95.912C64.614 95.912 65.0514 95.7893 65.3714 95.544C65.6914 95.2987 65.8514 94.9893 65.8514 94.616C65.8514 94.232 65.6807 93.9493 65.3394 93.768C64.998 93.576 64.47 93.3893 63.7554 93.208C63.1047 93.0373 62.5714 92.8667 62.1554 92.696C61.75 92.5147 61.398 92.2533 61.0994 91.912C60.8114 91.56 60.6674 91.1013 60.6674 90.536C60.6674 90.088 60.8007 89.6773 61.0674 89.304C61.334 88.9307 61.7127 88.6373 62.2034 88.424C62.694 88.2 63.254 88.088 63.8834 88.088C64.854 88.088 65.638 88.3333 66.2354 88.824C66.8327 89.3147 67.1527 89.9867 67.1954 90.84H65.7394C65.7074 90.3813 65.5207 90.0133 65.1794 89.736C64.8487 89.4587 64.4007 89.32 63.8354 89.32C63.3127 89.32 62.8967 89.432 62.5874 89.656C62.278 89.88 62.1234 90.1733 62.1234 90.536C62.1234 90.824 62.214 91.064 62.3954 91.256C62.5874 91.4373 62.822 91.5867 63.0994 91.704C63.3874 91.8107 63.782 91.9333 64.2834 92.072C64.9127 92.2427 65.4247 92.4133 65.8194 92.584C66.214 92.744 66.55 92.9893 66.8274 93.32C67.1154 93.6507 67.2647 94.0827 67.2754 94.616C67.2754 95.096 67.142 95.528 66.8754 95.912C66.6087 96.296 66.23 96.6 65.7394 96.824C65.2594 97.0373 64.7047 97.144 64.0754 97.144ZM76.8124 97.112C76.0764 97.112 75.415 96.984 74.8284 96.728C74.2524 96.4613 73.799 96.0987 73.4684 95.64C73.1377 95.1707 72.967 94.632 72.9564 94.024H74.5084C74.5617 94.5467 74.775 94.9893 75.1484 95.352C75.5324 95.704 76.087 95.88 76.8124 95.88C77.5057 95.88 78.0497 95.7093 78.4444 95.368C78.8497 95.016 79.0524 94.568 79.0524 94.024C79.0524 93.5973 78.935 93.2507 78.7004 92.984C78.4657 92.7173 78.1724 92.5147 77.8204 92.376C77.4684 92.2373 76.9937 92.088 76.3964 91.928C75.6604 91.736 75.0684 91.544 74.6204 91.352C74.183 91.16 73.8044 90.8613 73.4844 90.456C73.175 90.04 73.0204 89.4853 73.0204 88.792C73.0204 88.184 73.175 87.6453 73.4844 87.176C73.7937 86.7067 74.2257 86.344 74.7804 86.088C75.3457 85.832 75.991 85.704 76.7164 85.704C77.7617 85.704 78.615 85.9653 79.2764 86.488C79.9484 87.0107 80.327 87.704 80.4124 88.568H78.8124C78.759 88.1413 78.535 87.768 78.1404 87.448C77.7457 87.1173 77.223 86.952 76.5724 86.952C75.9644 86.952 75.4684 87.112 75.0844 87.432C74.7004 87.7413 74.5084 88.1787 74.5084 88.744C74.5084 89.1493 74.6204 89.48 74.8444 89.736C75.079 89.992 75.3617 90.1893 75.6924 90.328C76.0337 90.456 76.5084 90.6053 77.1164 90.776C77.8524 90.9787 78.4444 91.1813 78.8924 91.384C79.3404 91.576 79.7244 91.88 80.0444 92.296C80.3644 92.7013 80.5244 93.256 80.5244 93.96C80.5244 94.504 80.3804 95.016 80.0924 95.496C79.8044 95.976 79.3777 96.3653 78.8124 96.664C78.247 96.9627 77.5804 97.112 76.8124 97.112ZM90.283 88.232V97H88.827V95.704C88.5497 96.152 88.1603 96.504 87.659 96.76C87.1683 97.0053 86.6243 97.128 86.027 97.128C85.3443 97.128 84.731 96.9893 84.187 96.712C83.643 96.424 83.211 95.9973 82.891 95.432C82.5817 94.8667 82.427 94.1787 82.427 93.368V88.232H83.867V93.176C83.867 94.04 84.0857 94.7067 84.523 95.176C84.9603 95.6347 85.5577 95.864 86.315 95.864C87.0937 95.864 87.707 95.624 88.155 95.144C88.603 94.664 88.827 93.9653 88.827 93.048V88.232H90.283ZM94.0374 89.848C94.3254 89.3467 94.752 88.9307 95.3174 88.6C95.8934 88.2587 96.56 88.088 97.3174 88.088C98.096 88.088 98.8 88.2747 99.4294 88.648C100.069 89.0213 100.571 89.5493 100.933 90.232C101.296 90.904 101.477 91.688 101.477 92.584C101.477 93.4693 101.296 94.2587 100.933 94.952C100.571 95.6453 100.069 96.184 99.4294 96.568C98.8 96.952 98.096 97.144 97.3174 97.144C96.5707 97.144 95.9094 96.9787 95.3334 96.648C94.768 96.3067 94.336 95.8853 94.0374 95.384V101.16H92.5814V88.232H94.0374V89.848ZM99.9894 92.584C99.9894 91.9227 99.856 91.3467 99.5894 90.856C99.3227 90.3653 98.96 89.992 98.5014 89.736C98.0534 89.48 97.5574 89.352 97.0134 89.352C96.48 89.352 95.984 89.4853 95.5254 89.752C95.0774 90.008 94.7147 90.3867 94.4374 90.888C94.1707 91.3787 94.0374 91.9493 94.0374 92.6C94.0374 93.2613 94.1707 93.8427 94.4374 94.344C94.7147 94.8347 95.0774 95.2133 95.5254 95.48C95.984 95.736 96.48 95.864 97.0134 95.864C97.5574 95.864 98.0534 95.736 98.5014 95.48C98.96 95.2133 99.3227 94.8347 99.5894 94.344C99.856 93.8427 99.9894 93.256 99.9894 92.584ZM104.69 89.848C104.978 89.3467 105.405 88.9307 105.97 88.6C106.546 88.2587 107.213 88.088 107.97 88.088C108.749 88.088 109.453 88.2747 110.082 88.648C110.722 89.0213 111.223 89.5493 111.586 90.232C111.949 90.904 112.13 91.688 112.13 92.584C112.13 93.4693 111.949 94.2587 111.586 94.952C111.223 95.6453 110.722 96.184 110.082 96.568C109.453 96.952 108.749 97.144 107.97 97.144C107.223 97.144 106.562 96.9787 105.986 96.648C105.421 96.3067 104.989 95.8853 104.69 95.384V101.16H103.234V88.232H104.69V89.848ZM110.642 92.584C110.642 91.9227 110.509 91.3467 110.242 90.856C109.975 90.3653 109.613 89.992 109.154 89.736C108.706 89.48 108.21 89.352 107.666 89.352C107.133 89.352 106.637 89.4853 106.178 89.752C105.73 90.008 105.367 90.3867 105.09 90.888C104.823 91.3787 104.69 91.9493 104.69 92.6C104.69 93.2613 104.823 93.8427 105.09 94.344C105.367 94.8347 105.73 95.2133 106.178 95.48C106.637 95.736 107.133 95.864 107.666 95.864C108.21 95.864 108.706 95.736 109.154 95.48C109.613 95.2133 109.975 94.8347 110.242 94.344C110.509 93.8427 110.642 93.256 110.642 92.584ZM117.71 97.144C116.889 97.144 116.142 96.9573 115.47 96.584C114.809 96.2107 114.286 95.6827 113.902 95C113.529 94.3067 113.342 93.5067 113.342 92.6C113.342 91.704 113.534 90.9147 113.918 90.232C114.313 89.5387 114.846 89.0107 115.518 88.648C116.19 88.2747 116.942 88.088 117.774 88.088C118.606 88.088 119.358 88.2747 120.03 88.648C120.702 89.0107 121.23 89.5333 121.614 90.216C122.009 90.8987 122.206 91.6933 122.206 92.6C122.206 93.5067 122.004 94.3067 121.598 95C121.204 95.6827 120.665 96.2107 119.982 96.584C119.3 96.9573 118.542 97.144 117.71 97.144ZM117.71 95.864C118.233 95.864 118.724 95.7413 119.182 95.496C119.641 95.2507 120.009 94.8827 120.286 94.392C120.574 93.9013 120.718 93.304 120.718 92.6C120.718 91.896 120.58 91.2987 120.302 90.808C120.025 90.3173 119.662 89.9547 119.214 89.72C118.766 89.4747 118.281 89.352 117.758 89.352C117.225 89.352 116.734 89.4747 116.286 89.72C115.849 89.9547 115.497 90.3173 115.23 90.808C114.964 91.2987 114.83 91.896 114.83 92.6C114.83 93.3147 114.958 93.9173 115.214 94.408C115.481 94.8987 115.833 95.2667 116.27 95.512C116.708 95.7467 117.188 95.864 117.71 95.864ZM125.417 89.656C125.673 89.1547 126.035 88.7653 126.505 88.488C126.985 88.2107 127.566 88.072 128.249 88.072V89.576H127.865C126.233 89.576 125.417 90.4613 125.417 92.232V97H123.961V88.232H125.417V89.656ZM131.546 89.432V94.6C131.546 95.0267 131.636 95.3307 131.818 95.512C131.999 95.6827 132.314 95.768 132.762 95.768H133.834V97H132.522C131.711 97 131.103 96.8133 130.698 96.44C130.292 96.0667 130.09 95.4533 130.09 94.6V89.432H128.954V88.232H130.09V86.024H131.546V88.232H133.834V89.432H131.546Z" fill="#6B7280"/>
</svg>
