<svg width="515" height="135" viewBox="0 0 515 135" fill="none" xmlns="http://www.w3.org/2000/svg">
<path d="M160 20.5135V38.9532H139.774V115H121.179V38.9532H100.952V20.5135H160Z" fill="#1E3A8A"/>
<path d="M98.0952 20L70.7838 115H47.3114L20 20H39.9625L59.0476 91.7237L78.2424 20H98.0952Z" fill="#1E3A8A"/>
<path d="M176.74 103.112C178.156 103.376 179.32 104.084 180.232 105.236C181.144 106.388 181.6 107.708 181.6 109.196C181.6 110.54 181.264 111.728 180.592 112.76C179.944 113.768 178.996 114.56 177.748 115.136C176.5 115.712 175.024 116 173.32 116H162.484V90.872H172.852C174.556 90.872 176.02 91.148 177.244 91.7C178.492 92.252 179.428 93.02 180.052 94.004C180.7 94.988 181.024 96.104 181.024 97.352C181.024 98.816 180.628 100.04 179.836 101.024C179.068 102.008 178.036 102.704 176.74 103.112ZM167.524 101.24H172.132C173.332 101.24 174.256 100.976 174.904 100.448C175.552 99.896 175.876 99.116 175.876 98.108C175.876 97.1 175.552 96.32 174.904 95.768C174.256 95.216 173.332 94.94 172.132 94.94H167.524V101.24ZM172.6 111.896C173.824 111.896 174.772 111.608 175.444 111.032C176.14 110.456 176.488 109.64 176.488 108.584C176.488 107.504 176.128 106.664 175.408 106.064C174.688 105.44 173.716 105.128 172.492 105.128H167.524V111.896H172.6ZM190.585 90.872V106.424C190.585 108.128 191.029 109.436 191.917 110.348C192.805 111.236 194.053 111.68 195.661 111.68C197.293 111.68 198.553 111.236 199.441 110.348C200.329 109.436 200.773 108.128 200.773 106.424V90.872H205.849V106.388C205.849 108.524 205.381 110.336 204.445 111.824C203.533 113.288 202.297 114.392 200.737 115.136C199.201 115.88 197.485 116.252 195.589 116.252C193.717 116.252 192.013 115.88 190.477 115.136C188.965 114.392 187.765 113.288 186.877 111.824C185.989 110.336 185.545 108.524 185.545 106.388V90.872H190.585ZM219.394 116.252C217.642 116.252 216.058 115.952 214.642 115.352C213.25 114.752 212.146 113.888 211.33 112.76C210.514 111.632 210.094 110.3 210.07 108.764H215.47C215.542 109.796 215.902 110.612 216.55 111.212C217.222 111.812 218.134 112.112 219.286 112.112C220.462 112.112 221.386 111.836 222.058 111.284C222.73 110.708 223.066 109.964 223.066 109.052C223.066 108.308 222.838 107.696 222.382 107.216C221.926 106.736 221.35 106.364 220.654 106.1C219.982 105.812 219.046 105.5 217.846 105.164C216.214 104.684 214.882 104.216 213.85 103.76C212.842 103.28 211.966 102.572 211.222 101.636C210.502 100.676 210.142 99.404 210.142 97.82C210.142 96.332 210.514 95.036 211.258 93.932C212.002 92.828 213.046 91.988 214.39 91.412C215.734 90.812 217.27 90.512 218.998 90.512C221.59 90.512 223.69 91.148 225.298 92.42C226.93 93.668 227.83 95.42 227.998 97.676H222.454C222.406 96.812 222.034 96.104 221.338 95.552C220.666 94.976 219.766 94.688 218.638 94.688C217.654 94.688 216.862 94.94 216.262 95.444C215.686 95.948 215.398 96.68 215.398 97.64C215.398 98.312 215.614 98.876 216.046 99.332C216.502 99.764 217.054 100.124 217.702 100.412C218.374 100.676 219.31 100.988 220.51 101.348C222.142 101.828 223.474 102.308 224.506 102.788C225.538 103.268 226.426 103.988 227.17 104.948C227.914 105.908 228.286 107.168 228.286 108.728C228.286 110.072 227.938 111.32 227.242 112.472C226.546 113.624 225.526 114.548 224.182 115.244C222.838 115.916 221.242 116.252 219.394 116.252ZM237.696 90.872V116H232.656V90.872H237.696ZM264.167 116H259.127L247.715 98.756V116H242.675V90.836H247.715L259.127 108.116V90.836H264.167V116ZM274.188 94.94V101.24H282.648V105.236H274.188V111.896H283.728V116H269.148V90.836H283.728V94.94H274.188ZM296.984 116.252C295.232 116.252 293.648 115.952 292.232 115.352C290.84 114.752 289.736 113.888 288.92 112.76C288.104 111.632 287.684 110.3 287.66 108.764H293.06C293.132 109.796 293.492 110.612 294.14 111.212C294.812 111.812 295.724 112.112 296.876 112.112C298.052 112.112 298.976 111.836 299.648 111.284C300.32 110.708 300.656 109.964 300.656 109.052C300.656 108.308 300.428 107.696 299.972 107.216C299.516 106.736 298.94 106.364 298.244 106.1C297.572 105.812 296.636 105.5 295.436 105.164C293.804 104.684 292.472 104.216 291.44 103.76C290.432 103.28 289.556 102.572 288.812 101.636C288.092 100.676 287.732 99.404 287.732 97.82C287.732 96.332 288.104 95.036 288.848 93.932C289.592 92.828 290.636 91.988 291.98 91.412C293.324 90.812 294.86 90.512 296.588 90.512C299.18 90.512 301.28 91.148 302.888 92.42C304.52 93.668 305.42 95.42 305.588 97.676H300.044C299.996 96.812 299.624 96.104 298.928 95.552C298.256 94.976 297.356 94.688 296.228 94.688C295.244 94.688 294.452 94.94 293.852 95.444C293.276 95.948 292.988 96.68 292.988 97.64C292.988 98.312 293.204 98.876 293.636 99.332C294.092 99.764 294.644 100.124 295.292 100.412C295.964 100.676 296.9 100.988 298.1 101.348C299.732 101.828 301.064 102.308 302.096 102.788C303.128 103.268 304.016 103.988 304.76 104.948C305.504 105.908 305.876 107.168 305.876 108.728C305.876 110.072 305.528 111.32 304.832 112.472C304.136 113.624 303.116 114.548 301.772 115.244C300.428 115.916 298.832 116.252 296.984 116.252ZM318.922 116.252C317.17 116.252 315.586 115.952 314.17 115.352C312.778 114.752 311.674 113.888 310.858 112.76C310.042 111.632 309.622 110.3 309.598 108.764H314.998C315.07 109.796 315.43 110.612 316.078 111.212C316.75 111.812 317.662 112.112 318.814 112.112C319.99 112.112 320.914 111.836 321.586 111.284C322.258 110.708 322.594 109.964 322.594 109.052C322.594 108.308 322.366 107.696 321.91 107.216C321.454 106.736 320.878 106.364 320.182 106.1C319.51 105.812 318.574 105.5 317.374 105.164C315.742 104.684 314.41 104.216 313.378 103.76C312.37 103.28 311.494 102.572 310.75 101.636C310.03 100.676 309.67 99.404 309.67 97.82C309.67 96.332 310.042 95.036 310.786 93.932C311.53 92.828 312.574 91.988 313.918 91.412C315.262 90.812 316.798 90.512 318.526 90.512C321.118 90.512 323.218 91.148 324.826 92.42C326.458 93.668 327.358 95.42 327.526 97.676H321.982C321.934 96.812 321.562 96.104 320.866 95.552C320.194 94.976 319.294 94.688 318.166 94.688C317.182 94.688 316.39 94.94 315.79 95.444C315.214 95.948 314.926 96.68 314.926 97.64C314.926 98.312 315.142 98.876 315.574 99.332C316.03 99.764 316.582 100.124 317.23 100.412C317.902 100.676 318.838 100.988 320.038 101.348C321.67 101.828 323.002 102.308 324.034 102.788C325.066 103.268 325.954 103.988 326.698 104.948C327.442 105.908 327.814 107.168 327.814 108.728C327.814 110.072 327.466 111.32 326.77 112.472C326.074 113.624 325.054 114.548 323.71 115.244C322.366 115.916 320.77 116.252 318.922 116.252ZM349.437 116.252C347.685 116.252 346.101 115.952 344.685 115.352C343.293 114.752 342.189 113.888 341.373 112.76C340.557 111.632 340.137 110.3 340.113 108.764H345.513C345.585 109.796 345.945 110.612 346.593 111.212C347.265 111.812 348.177 112.112 349.329 112.112C350.505 112.112 351.429 111.836 352.101 111.284C352.773 110.708 353.109 109.964 353.109 109.052C353.109 108.308 352.881 107.696 352.425 107.216C351.969 106.736 351.393 106.364 350.697 106.1C350.025 105.812 349.089 105.5 347.889 105.164C346.257 104.684 344.925 104.216 343.893 103.76C342.885 103.28 342.009 102.572 341.265 101.636C340.545 100.676 340.185 99.404 340.185 97.82C340.185 96.332 340.557 95.036 341.301 93.932C342.045 92.828 343.089 91.988 344.433 91.412C345.777 90.812 347.313 90.512 349.041 90.512C351.633 90.512 353.733 91.148 355.341 92.42C356.973 93.668 357.873 95.42 358.041 97.676H352.497C352.449 96.812 352.077 96.104 351.381 95.552C350.709 94.976 349.809 94.688 348.681 94.688C347.697 94.688 346.905 94.94 346.305 95.444C345.729 95.948 345.441 96.68 345.441 97.64C345.441 98.312 345.657 98.876 346.089 99.332C346.545 99.764 347.097 100.124 347.745 100.412C348.417 100.676 349.353 100.988 350.553 101.348C352.185 101.828 353.517 102.308 354.549 102.788C355.581 103.268 356.469 103.988 357.213 104.948C357.957 105.908 358.329 107.168 358.329 108.728C358.329 110.072 357.981 111.32 357.285 112.472C356.589 113.624 355.569 114.548 354.225 115.244C352.881 115.916 351.285 116.252 349.437 116.252ZM367.667 90.872V106.424C367.667 108.128 368.111 109.436 368.999 110.348C369.887 111.236 371.135 111.68 372.743 111.68C374.375 111.68 375.635 111.236 376.523 110.348C377.411 109.436 377.855 108.128 377.855 106.424V90.872H382.931V106.388C382.931 108.524 382.463 110.336 381.527 111.824C380.615 113.288 379.379 114.392 377.819 115.136C376.283 115.88 374.567 116.252 372.671 116.252C370.799 116.252 369.095 115.88 367.559 115.136C366.047 114.392 364.847 113.288 363.959 111.824C363.071 110.336 362.627 108.524 362.627 106.388V90.872H367.667ZM406.124 98.648C406.124 99.992 405.8 101.252 405.152 102.428C404.528 103.604 403.532 104.552 402.164 105.272C400.82 105.992 399.116 106.352 397.052 106.352H392.84V116H387.8V90.872H397.052C398.996 90.872 400.652 91.208 402.02 91.88C403.388 92.552 404.408 93.476 405.08 94.652C405.776 95.828 406.124 97.16 406.124 98.648ZM396.836 102.284C398.228 102.284 399.26 101.972 399.932 101.348C400.604 100.7 400.94 99.8 400.94 98.648C400.94 96.2 399.572 94.976 396.836 94.976H392.84V102.284H396.836ZM428.027 98.648C428.027 99.992 427.703 101.252 427.055 102.428C426.431 103.604 425.435 104.552 424.067 105.272C422.723 105.992 421.019 106.352 418.955 106.352H414.743V116H409.703V90.872H418.955C420.899 90.872 422.555 91.208 423.923 91.88C425.291 92.552 426.311 93.476 426.983 94.652C427.679 95.828 428.027 97.16 428.027 98.648ZM418.739 102.284C420.131 102.284 421.163 101.972 421.835 101.348C422.507 100.7 422.843 99.8 422.843 98.648C422.843 96.2 421.475 94.976 418.739 94.976H414.743V102.284H418.739ZM443.269 116.252C440.917 116.252 438.757 115.7 436.789 114.596C434.821 113.492 433.261 111.968 432.109 110.024C430.957 108.056 430.381 105.836 430.381 103.364C430.381 100.916 430.957 98.72 432.109 96.776C433.261 94.808 434.821 93.272 436.789 92.168C438.757 91.064 440.917 90.512 443.269 90.512C445.645 90.512 447.805 91.064 449.749 92.168C451.717 93.272 453.265 94.808 454.393 96.776C455.545 98.72 456.121 100.916 456.121 103.364C456.121 105.836 455.545 108.056 454.393 110.024C453.265 111.968 451.717 113.492 449.749 114.596C447.781 115.7 445.621 116.252 443.269 116.252ZM443.269 111.752C444.781 111.752 446.113 111.416 447.265 110.744C448.417 110.048 449.317 109.064 449.965 107.792C450.613 106.52 450.937 105.044 450.937 103.364C450.937 101.684 450.613 100.22 449.965 98.972C449.317 97.7 448.417 96.728 447.265 96.056C446.113 95.384 444.781 95.048 443.269 95.048C441.757 95.048 440.413 95.384 439.237 96.056C438.085 96.728 437.185 97.7 436.537 98.972C435.889 100.22 435.565 101.684 435.565 103.364C435.565 105.044 435.889 106.52 436.537 107.792C437.185 109.064 438.085 110.048 439.237 110.744C440.413 111.416 441.757 111.752 443.269 111.752ZM472.831 116L467.287 106.208H464.911V116H459.871V90.872H469.303C471.247 90.872 472.903 91.22 474.271 91.916C475.639 92.588 476.659 93.512 477.331 94.688C478.027 95.84 478.375 97.136 478.375 98.576C478.375 100.232 477.895 101.732 476.935 103.076C475.975 104.396 474.547 105.308 472.651 105.812L478.663 116H472.831ZM464.911 102.428H469.123C470.491 102.428 471.511 102.104 472.183 101.456C472.855 100.784 473.191 99.86 473.191 98.684C473.191 97.532 472.855 96.644 472.183 96.02C471.511 95.372 470.491 95.048 469.123 95.048H464.911V102.428ZM500.033 90.872V94.94H493.337V116H488.297V94.94H481.601V90.872H500.033Z" fill="#1E3A8A"/>
</svg>
